<svg xmlns="http://www.w3.org/2000/svg" role="img" width="360" height="240" viewBox="0 0 360 240"><title>aggregate_decomposition_tree</title><desc>Neper chart rendered from caller-owned geometry</desc>
<rect x="0" y="0" width="360" height="240" fill="rgb(255,255,255)"/>
<line x1="106.61" y1="127.5" x2="122.67" y2="127.5" stroke="rgb(138,156,179)" stroke-width="2" stroke-linecap="round"/>
<line x1="122.67" y1="127.5" x2="122.67" y2="86.25" stroke="rgb(138,156,179)" stroke-width="2" stroke-linecap="round"/>
<line x1="122.67" y1="86.25" x2="138.72" y2="86.25" stroke="rgb(138,156,179)" stroke-width="2" stroke-linecap="round"/>
<line x1="221.28" y1="86.25" x2="237.33" y2="86.25" stroke="rgb(138,156,179)" stroke-width="2" stroke-linecap="round"/>
<line x1="237.33" y1="86.25" x2="237.33" y2="58.75" stroke="rgb(138,156,179)" stroke-width="2" stroke-linecap="round"/>
<line x1="237.33" y1="58.75" x2="253.39" y2="58.75" stroke="rgb(138,156,179)" stroke-width="2" stroke-linecap="round"/>
<line x1="221.28" y1="86.25" x2="237.33" y2="86.25" stroke="rgb(138,156,179)" stroke-width="2" stroke-linecap="round"/>
<line x1="237.33" y1="86.25" x2="237.33" y2="86.25" stroke="rgb(138,156,179)" stroke-width="2" stroke-linecap="round"/>
<line x1="237.33" y1="86.25" x2="253.39" y2="86.25" stroke="rgb(138,156,179)" stroke-width="2" stroke-linecap="round"/>
<line x1="221.28" y1="86.25" x2="237.33" y2="86.25" stroke="rgb(138,156,179)" stroke-width="2" stroke-linecap="round"/>
<line x1="237.33" y1="86.25" x2="237.33" y2="113.75" stroke="rgb(138,156,179)" stroke-width="2" stroke-linecap="round"/>
<line x1="237.33" y1="113.75" x2="253.39" y2="113.75" stroke="rgb(138,156,179)" stroke-width="2" stroke-linecap="round"/>
<line x1="106.61" y1="127.5" x2="122.67" y2="127.5" stroke="rgb(138,156,179)" stroke-width="2" stroke-linecap="round"/>
<line x1="122.67" y1="127.5" x2="122.67" y2="168.75" stroke="rgb(138,156,179)" stroke-width="2" stroke-linecap="round"/>
<line x1="122.67" y1="168.75" x2="138.72" y2="168.75" stroke="rgb(138,156,179)" stroke-width="2" stroke-linecap="round"/>
<line x1="221.28" y1="168.75" x2="237.33" y2="168.75" stroke="rgb(138,156,179)" stroke-width="2" stroke-linecap="round"/>
<line x1="237.33" y1="168.75" x2="237.33" y2="141.25" stroke="rgb(138,156,179)" stroke-width="2" stroke-linecap="round"/>
<line x1="237.33" y1="141.25" x2="253.39" y2="141.25" stroke="rgb(138,156,179)" stroke-width="2" stroke-linecap="round"/>
<line x1="221.28" y1="168.75" x2="237.33" y2="168.75" stroke="rgb(138,156,179)" stroke-width="2" stroke-linecap="round"/>
<line x1="237.33" y1="168.75" x2="237.33" y2="168.75" stroke="rgb(138,156,179)" stroke-width="2" stroke-linecap="round"/>
<line x1="237.33" y1="168.75" x2="253.39" y2="168.75" stroke="rgb(138,156,179)" stroke-width="2" stroke-linecap="round"/>
<line x1="221.28" y1="168.75" x2="237.33" y2="168.75" stroke="rgb(138,156,179)" stroke-width="2" stroke-linecap="round"/>
<line x1="237.33" y1="168.75" x2="237.33" y2="196.25" stroke="rgb(138,156,179)" stroke-width="2" stroke-linecap="round"/>
<line x1="237.33" y1="196.25" x2="253.39" y2="196.25" stroke="rgb(138,156,179)" stroke-width="2" stroke-linecap="round"/>
<rect x="24.05" y="118.56" width="82.56" height="17.88" fill="rgb(33,138,125)"/>
<rect x="138.72" y="77.31" width="82.56" height="17.88" fill="rgb(33,138,125)"/>
<rect x="253.39" y="49.81" width="82.56" height="17.88" fill="rgb(33,138,125)"/>
<rect x="253.39" y="77.31" width="82.56" height="17.88" fill="rgb(33,138,125)"/>
<rect x="253.39" y="104.81" width="82.56" height="17.88" fill="rgb(33,138,125)"/>
<rect x="138.72" y="159.81" width="82.56" height="17.88" fill="rgb(33,138,125)"/>
<rect x="253.39" y="132.31" width="82.56" height="17.88" fill="rgb(33,138,125)"/>
<rect x="253.39" y="159.81" width="82.56" height="17.88" fill="rgb(33,138,125)"/>
<rect x="253.39" y="187.31" width="82.56" height="17.88" fill="rgb(33,138,125)"/>
<rect x="24.05" y="118.56" width="82.56" height="17.88" fill="rgb(38,77,135)"/>
<rect x="138.72" y="77.31" width="82.56" height="17.88" fill="rgb(46,112,191)"/>
<rect x="138.72" y="159.81" width="82.56" height="17.88" fill="rgb(46,112,191)"/>
<rect x="28.05" y="130.44" width="74.56" height="3" fill="rgb(245,201,82)"/>
<rect x="142.72" y="89.19" width="46.6" height="3" fill="rgb(245,201,82)"/>
<rect x="257.39" y="61.69" width="35.79" height="3" fill="rgb(245,201,82)"/>
<rect x="257.39" y="89.19" width="21.87" height="3" fill="rgb(245,201,82)"/>
<rect x="257.39" y="116.69" width="16.9" height="3" fill="rgb(245,201,82)"/>
<rect x="142.72" y="171.69" width="27.96" height="3" fill="rgb(245,201,82)"/>
<rect x="257.39" y="144.19" width="33.14" height="3" fill="rgb(245,201,82)"/>
<rect x="257.39" y="171.69" width="24.85" height="3" fill="rgb(245,201,82)"/>
<rect x="257.39" y="199.19" width="16.57" height="3" fill="rgb(245,201,82)"/>
<text x="180" y="23" font-family="sans-serif" font-size="13" text-anchor="middle" fill="rgb(51,64,84)">Aggregate decomposition tree</text>
<text x="180" y="233" font-family="sans-serif" font-size="8" text-anchor="middle" fill="rgb(51,64,84)">Leaf values roll up; bars show share of parent</text>
<text x="65.33" y="128.5" font-family="sans-serif" font-size="7" text-anchor="middle" fill="rgb(255,255,255)">All 120</text>
<text x="180" y="87.25" font-family="sans-serif" font-size="7" text-anchor="middle" fill="rgb(255,255,255)">Digital 75</text>
<text x="294.67" y="59.75" font-family="sans-serif" font-size="7" text-anchor="middle" fill="rgb(255,255,255)">Cloud 36</text>
<text x="294.67" y="87.25" font-family="sans-serif" font-size="7" text-anchor="middle" fill="rgb(255,255,255)">Apps 22</text>
<text x="294.67" y="114.75" font-family="sans-serif" font-size="7" text-anchor="middle" fill="rgb(255,255,255)">Data 17</text>
<text x="180" y="169.75" font-family="sans-serif" font-size="7" text-anchor="middle" fill="rgb(255,255,255)">Operations 45</text>
<text x="294.67" y="142.25" font-family="sans-serif" font-size="7" text-anchor="middle" fill="rgb(255,255,255)">Supply 20</text>
<text x="294.67" y="169.75" font-family="sans-serif" font-size="7" text-anchor="middle" fill="rgb(255,255,255)">Field 15</text>
<text x="294.67" y="197.25" font-family="sans-serif" font-size="7" text-anchor="middle" fill="rgb(255,255,255)">Support 10</text>
</svg>
