<svg xmlns="http://www.w3.org/2000/svg" role="img" width="360" height="240" viewBox="0 0 360 240"><title>bland_altman</title><desc>Neper chart rendered from caller-owned geometry</desc>
<rect x="0" y="0" width="360" height="240" fill="rgb(255,255,255)"/>
<rect x="56" y="43" width="252" height="151" fill="rgb(245,247,252)"/>
<line x1="56" y1="194" x2="308" y2="194" stroke="rgb(184,82,77)" stroke-width="2" stroke-linecap="round"/>
<line x1="56" y1="118.5" x2="308" y2="118.5" stroke="rgb(184,82,77)" stroke-width="2" stroke-linecap="round"/>
<line x1="56" y1="43" x2="308" y2="43" stroke="rgb(184,82,77)" stroke-width="2" stroke-linecap="round"/>
<rect x="53" y="141.6" width="6" height="6" fill="rgb(20,102,194)"/>
<rect x="79.33" y="101.18" width="6" height="6" fill="rgb(20,102,194)"/>
<rect x="116" y="80.97" width="6" height="6" fill="rgb(20,102,194)"/>
<rect x="163.01" y="107.92" width="6" height="6" fill="rgb(20,102,194)"/>
<rect x="198.75" y="148.34" width="6" height="6" fill="rgb(20,102,194)"/>
<rect x="226.96" y="67.5" width="6" height="6" fill="rgb(20,102,194)"/>
<rect x="277.73" y="94.45" width="6" height="6" fill="rgb(20,102,194)"/>
<rect x="305" y="182.02" width="6" height="6" fill="rgb(20,102,194)"/>
<text x="301" y="190" font-family="sans-serif" font-size="8" text-anchor="end" fill="rgb(51,64,84)">Lower LoA</text>
<text x="301" y="114.5" font-family="sans-serif" font-size="8" text-anchor="end" fill="rgb(51,64,84)">Bias</text>
<text x="301" y="39" font-family="sans-serif" font-size="8" text-anchor="end" fill="rgb(51,64,84)">Upper LoA</text>
<text x="71.04" y="211" font-family="sans-serif" font-size="8" text-anchor="middle" fill="rgb(51,64,84)">10</text>
<text x="165.07" y="211" font-family="sans-serif" font-size="8" text-anchor="middle" fill="rgb(51,64,84)">15</text>
<text x="259.1" y="211" font-family="sans-serif" font-size="8" text-anchor="middle" fill="rgb(51,64,84)">20</text>
<text x="180" y="23" font-family="sans-serif" font-size="14" text-anchor="middle" fill="rgb(51,64,84)">Bland-Altman agreement</text>
<text x="180" y="231" font-family="sans-serif" font-size="9" text-anchor="middle" fill="rgb(51,64,84)">Pair mean</text>
</svg>
