<svg xmlns="http://www.w3.org/2000/svg" role="img" width="360" height="240" viewBox="0 0 360 240"><title>concordance</title><desc>Neper chart rendered from caller-owned geometry</desc>
<rect x="0" y="0" width="360" height="240" fill="rgb(255,255,255)"/>
<rect x="46" y="53" width="268" height="133" fill="rgb(250,252,255)"/>
<line x1="46" y1="53" x2="46" y2="186" stroke="rgb(222,232,242)" stroke-width="1" stroke-linecap="round"/>
<line x1="46" y1="186" x2="46" y2="191" stroke="rgb(43,59,82)" stroke-width="1" stroke-linecap="round"/>
<line x1="314" y1="53" x2="314" y2="186" stroke="rgb(222,232,242)" stroke-width="1" stroke-linecap="round"/>
<line x1="314" y1="186" x2="314" y2="191" stroke="rgb(43,59,82)" stroke-width="1" stroke-linecap="round"/>
<line x1="46" y1="186" x2="314" y2="186" stroke="rgb(222,232,242)" stroke-width="1" stroke-linecap="round"/>
<line x1="41" y1="186" x2="46" y2="186" stroke="rgb(43,59,82)" stroke-width="1" stroke-linecap="round"/>
<line x1="46" y1="53" x2="314" y2="53" stroke="rgb(222,232,242)" stroke-width="1" stroke-linecap="round"/>
<line x1="41" y1="53" x2="46" y2="53" stroke="rgb(43,59,82)" stroke-width="1" stroke-linecap="round"/>
<line x1="46" y1="53" x2="46" y2="186" stroke="rgb(43,59,82)" stroke-width="1" stroke-linecap="round"/>
<line x1="46" y1="186" x2="314" y2="186" stroke="rgb(43,59,82)" stroke-width="1" stroke-linecap="round"/>
<line x1="46" y1="186" x2="314" y2="53" stroke="rgb(158,168,184)" stroke-width="2" stroke-linecap="round"/>
<rect x="46.08" y="171.72" width="6" height="6" fill="rgb(20,99,189)"/>
<rect x="226.58" y="75.95" width="6" height="6" fill="rgb(20,99,189)"/>
<rect x="229.14" y="80.2" width="6" height="6" fill="rgb(20,99,189)"/>
<rect x="58.34" y="163.05" width="6" height="6" fill="rgb(20,99,189)"/>
<rect x="122.73" y="134.19" width="6" height="6" fill="rgb(20,99,189)"/>
<rect x="244.78" y="64.02" width="6" height="6" fill="rgb(20,99,189)"/>
<rect x="141.9" y="120.71" width="6" height="6" fill="rgb(20,99,189)"/>
<rect x="177.22" y="104.09" width="6" height="6" fill="rgb(20,99,189)"/>
<rect x="167.33" y="112.14" width="6" height="6" fill="rgb(20,99,189)"/>
<rect x="175.47" y="102.59" width="6" height="6" fill="rgb(20,99,189)"/>
<rect x="115.52" y="139.68" width="6" height="6" fill="rgb(20,99,189)"/>
<rect x="230.16" y="78.01" width="6" height="6" fill="rgb(20,99,189)"/>
<rect x="109.7" y="138.58" width="6" height="6" fill="rgb(20,99,189)"/>
<rect x="105.37" y="138.15" width="6" height="6" fill="rgb(20,99,189)"/>
<rect x="277.28" y="50" width="6" height="6" fill="rgb(20,99,189)"/>
<rect x="253.33" y="57.44" width="6" height="6" fill="rgb(20,99,189)"/>
<rect x="112.05" y="143.78" width="6" height="6" fill="rgb(20,99,189)"/>
<rect x="206.06" y="90.44" width="6" height="6" fill="rgb(20,99,189)"/>
<rect x="250.88" y="64.48" width="6" height="6" fill="rgb(20,99,189)"/>
<rect x="218.27" y="76.81" width="6" height="6" fill="rgb(20,99,189)"/>
<rect x="224.94" y="76.32" width="6" height="6" fill="rgb(20,99,189)"/>
<rect x="251.95" y="69.78" width="6" height="6" fill="rgb(20,99,189)"/>
<rect x="43" y="174.55" width="6" height="6" fill="rgb(20,99,189)"/>
<rect x="260.89" y="61.42" width="6" height="6" fill="rgb(20,99,189)"/>
<text x="180" y="20" font-family="sans-serif" font-size="13" text-anchor="middle" fill="rgb(43,59,82)">Method agreement</text>
<text x="180" y="36" font-family="sans-serif" font-size="7" text-anchor="middle" fill="rgb(43,59,82)">Two methods against the identity line / Lin's CCC measures distance from it</text>
</svg>
