<svg xmlns="http://www.w3.org/2000/svg" role="img" width="360" height="240" viewBox="0 0 360 240"><title>connected_scatter</title><desc>Neper chart rendered from caller-owned geometry</desc>
<rect x="0" y="0" width="360" height="240" fill="rgb(255,255,255)"/>
<rect x="55" y="48" width="250" height="152" fill="rgb(247,250,255)"/>
<path d="M55 200 L144.29 154.96 L233.57 177.48 L305 98.67 L251.43 48 L171.07 64.89 L117.5 115.56 L206.79 138.07" fill="none" stroke="rgb(26,110,199)" stroke-width="2" stroke-linejoin="round"/>
<rect x="52" y="197" width="6" height="6" fill="rgb(26,110,199)"/>
<rect x="141.29" y="151.96" width="6" height="6" fill="rgb(26,110,199)"/>
<rect x="230.57" y="174.48" width="6" height="6" fill="rgb(26,110,199)"/>
<rect x="302" y="95.67" width="6" height="6" fill="rgb(26,110,199)"/>
<rect x="248.43" y="45" width="6" height="6" fill="rgb(26,110,199)"/>
<rect x="168.07" y="61.89" width="6" height="6" fill="rgb(26,110,199)"/>
<rect x="114.5" y="112.56" width="6" height="6" fill="rgb(26,110,199)"/>
<rect x="203.79" y="135.07" width="6" height="6" fill="rgb(26,110,199)"/>
<text x="180" y="23" font-family="sans-serif" font-size="12" text-anchor="middle" fill="rgb(46,61,82)">Connected scatter / ordered path</text>
<text x="180" y="232" font-family="sans-serif" font-size="8" text-anchor="middle" fill="rgb(46,61,82)">Numbers show observation order</text>
<text x="61" y="194" font-family="sans-serif" font-size="8" text-anchor="start" fill="rgb(46,61,82)">1</text>
<text x="150.29" y="148.96" font-family="sans-serif" font-size="8" text-anchor="start" fill="rgb(46,61,82)">2</text>
<text x="239.57" y="171.48" font-family="sans-serif" font-size="8" text-anchor="start" fill="rgb(46,61,82)">3</text>
<text x="311" y="92.67" font-family="sans-serif" font-size="8" text-anchor="start" fill="rgb(46,61,82)">4</text>
<text x="257.43" y="42" font-family="sans-serif" font-size="8" text-anchor="start" fill="rgb(46,61,82)">5</text>
<text x="177.07" y="58.89" font-family="sans-serif" font-size="8" text-anchor="start" fill="rgb(46,61,82)">6</text>
<text x="123.5" y="109.56" font-family="sans-serif" font-size="8" text-anchor="start" fill="rgb(46,61,82)">7</text>
<text x="212.79" y="132.07" font-family="sans-serif" font-size="8" text-anchor="start" fill="rgb(46,61,82)">8</text>
</svg>
