<svg xmlns="http://www.w3.org/2000/svg" role="img" width="360" height="240" viewBox="0 0 360 240"><title>cumulative_lift</title><desc>Neper chart rendered from caller-owned geometry</desc>
<rect x="0" y="0" width="360" height="240" fill="rgb(255,255,255)"/>
<rect x="56" y="43" width="252" height="150" fill="rgb(245,247,252)"/>
<line x1="56" y1="118" x2="308" y2="118" stroke="rgb(163,176,194)" stroke-width="2" stroke-linecap="round"/>
<path d="M56 118 L71.75 43 L87.5 43 L103.25 93 L119 80.5 L134.75 73 L150.5 93 L166.25 85.86 L182 99.25 L197.75 93 L213.5 103 L229.25 97.55 L245 105.5 L260.75 112.23 L276.5 107.29 L292.25 113 L308 118" fill="none" stroke="rgb(20,102,194)" stroke-width="2" stroke-linejoin="round"/>
<text x="56" y="210" font-family="sans-serif" font-size="9" text-anchor="middle" fill="rgb(51,64,84)">0</text>
<text x="182" y="210" font-family="sans-serif" font-size="9" text-anchor="middle" fill="rgb(51,64,84)">0.5</text>
<text x="308" y="210" font-family="sans-serif" font-size="9" text-anchor="middle" fill="rgb(51,64,84)">1</text>
<text x="180" y="23" font-family="sans-serif" font-size="14" text-anchor="middle" fill="rgb(51,64,84)">Cumulative lift</text>
<text x="180" y="231" font-family="sans-serif" font-size="9" text-anchor="middle" fill="rgb(51,64,84)">Population share</text>
<text x="56" y="38" font-family="sans-serif" font-size="9" text-anchor="start" fill="rgb(51,64,84)">Lift</text>
</svg>
