<svg xmlns="http://www.w3.org/2000/svg" role="img" width="360" height="240" viewBox="0 0 360 240"><title>lollipop</title><desc>Neper chart rendered from caller-owned geometry</desc>
<rect x="0" y="0" width="360" height="240" fill="rgb(255,255,255)" fill-opacity="1"/>
<line x1="44" y1="30" x2="44" y2="204" stroke="rgb(224,232,242)" stroke-opacity="1" stroke-width="1" stroke-linecap="round"/>
<line x1="44" y1="204" x2="44" y2="209" stroke="rgb(82,97,122)" stroke-opacity="1" stroke-width="1" stroke-linecap="round"/>
<line x1="139.33334350585938" y1="30" x2="139.33334350585938" y2="204" stroke="rgb(224,232,242)" stroke-opacity="1" stroke-width="1" stroke-linecap="round"/>
<line x1="139.33334350585938" y1="204" x2="139.33334350585938" y2="209" stroke="rgb(82,97,122)" stroke-opacity="1" stroke-width="1" stroke-linecap="round"/>
<line x1="234.6666717529297" y1="30" x2="234.6666717529297" y2="204" stroke="rgb(224,232,242)" stroke-opacity="1" stroke-width="1" stroke-linecap="round"/>
<line x1="234.6666717529297" y1="204" x2="234.6666717529297" y2="209" stroke="rgb(82,97,122)" stroke-opacity="1" stroke-width="1" stroke-linecap="round"/>
<line x1="330" y1="30" x2="330" y2="204" stroke="rgb(224,232,242)" stroke-opacity="1" stroke-width="1" stroke-linecap="round"/>
<line x1="330" y1="204" x2="330" y2="209" stroke="rgb(82,97,122)" stroke-opacity="1" stroke-width="1" stroke-linecap="round"/>
<line x1="44" y1="204" x2="330" y2="204" stroke="rgb(224,232,242)" stroke-opacity="1" stroke-width="1" stroke-linecap="round"/>
<line x1="39" y1="204" x2="44" y2="204" stroke="rgb(82,97,122)" stroke-opacity="1" stroke-width="1" stroke-linecap="round"/>
<line x1="44" y1="146" x2="330" y2="146" stroke="rgb(224,232,242)" stroke-opacity="1" stroke-width="1" stroke-linecap="round"/>
<line x1="39" y1="146" x2="44" y2="146" stroke="rgb(82,97,122)" stroke-opacity="1" stroke-width="1" stroke-linecap="round"/>
<line x1="44" y1="88" x2="330" y2="88" stroke="rgb(224,232,242)" stroke-opacity="1" stroke-width="1" stroke-linecap="round"/>
<line x1="39" y1="88" x2="44" y2="88" stroke="rgb(82,97,122)" stroke-opacity="1" stroke-width="1" stroke-linecap="round"/>
<line x1="44" y1="30" x2="330" y2="30" stroke="rgb(224,232,242)" stroke-opacity="1" stroke-width="1" stroke-linecap="round"/>
<line x1="39" y1="30" x2="44" y2="30" stroke="rgb(82,97,122)" stroke-opacity="1" stroke-width="1" stroke-linecap="round"/>
<line x1="44" y1="30" x2="44" y2="204" stroke="rgb(82,97,122)" stroke-opacity="1" stroke-width="1" stroke-linecap="round"/>
<line x1="44" y1="204" x2="330" y2="204" stroke="rgb(82,97,122)" stroke-opacity="1" stroke-width="1" stroke-linecap="round"/>
<line x1="44" y1="204" x2="44" y2="179.14285278320312" stroke="rgb(18,89,194)" stroke-opacity="1" stroke-width="2" stroke-linecap="round"/>
<line x1="84.85714721679688" y1="204" x2="84.85714721679688" y2="104.57142639160156" stroke="rgb(18,89,194)" stroke-opacity="1" stroke-width="2" stroke-linecap="round"/>
<line x1="125.71428680419922" y1="204" x2="125.71428680419922" y2="129.42855834960938" stroke="rgb(18,89,194)" stroke-opacity="1" stroke-width="2" stroke-linecap="round"/>
<line x1="166.57142639160156" y1="204" x2="166.57142639160156" y2="54.857139587402344" stroke="rgb(18,89,194)" stroke-opacity="1" stroke-width="2" stroke-linecap="round"/>
<line x1="207.42857360839844" y1="204" x2="207.42857360839844" y2="104.57142639160156" stroke="rgb(18,89,194)" stroke-opacity="1" stroke-width="2" stroke-linecap="round"/>
<line x1="248.2857208251953" y1="204" x2="248.2857208251953" y2="79.71427917480469" stroke="rgb(18,89,194)" stroke-opacity="1" stroke-width="2" stroke-linecap="round"/>
<line x1="289.1428527832031" y1="204" x2="289.1428527832031" y2="154.2857208251953" stroke="rgb(18,89,194)" stroke-opacity="1" stroke-width="2" stroke-linecap="round"/>
<line x1="330" y1="204" x2="330" y2="30" stroke="rgb(18,89,194)" stroke-opacity="1" stroke-width="2" stroke-linecap="round"/>
<rect x="41" y="176.14285278320312" width="6" height="6" fill="rgb(18,89,194)" fill-opacity="1"/>
<rect x="81.85714721679688" y="101.57142639160156" width="6" height="6" fill="rgb(18,89,194)" fill-opacity="1"/>
<rect x="122.71428680419922" y="126.42855834960938" width="6" height="6" fill="rgb(18,89,194)" fill-opacity="1"/>
<rect x="163.57142639160156" y="51.857139587402344" width="6" height="6" fill="rgb(18,89,194)" fill-opacity="1"/>
<rect x="204.42857360839844" y="101.57142639160156" width="6" height="6" fill="rgb(18,89,194)" fill-opacity="1"/>
<rect x="245.2857208251953" y="76.71427917480469" width="6" height="6" fill="rgb(18,89,194)" fill-opacity="1"/>
<rect x="286.1428527832031" y="151.2857208251953" width="6" height="6" fill="rgb(18,89,194)" fill-opacity="1"/>
<rect x="327" y="27" width="6" height="6" fill="rgb(18,89,194)" fill-opacity="1"/>
</svg>
