<svg xmlns="http://www.w3.org/2000/svg" role="img" width="360" height="240" viewBox="0 0 360 240"><title>mewma</title><desc>Neper chart rendered from caller-owned geometry</desc>
<rect x="0" y="0" width="360" height="240" fill="rgb(255,255,255)" fill-opacity="1"/>
<rect x="46" y="53" width="268" height="133" fill="rgb(250,252,255)" fill-opacity="1"/>
<line x1="46" y1="53" x2="46" y2="186" stroke="rgb(222,232,242)" stroke-opacity="1" stroke-width="1" stroke-linecap="round"/>
<line x1="46" y1="186" x2="46" y2="191" stroke="rgb(43,59,82)" stroke-opacity="1" stroke-width="1" stroke-linecap="round"/>
<line x1="314" y1="53" x2="314" y2="186" stroke="rgb(222,232,242)" stroke-opacity="1" stroke-width="1" stroke-linecap="round"/>
<line x1="314" y1="186" x2="314" y2="191" stroke="rgb(43,59,82)" stroke-opacity="1" stroke-width="1" stroke-linecap="round"/>
<line x1="46" y1="186" x2="314" y2="186" stroke="rgb(222,232,242)" stroke-opacity="1" stroke-width="1" stroke-linecap="round"/>
<line x1="41" y1="186" x2="46" y2="186" stroke="rgb(43,59,82)" stroke-opacity="1" stroke-width="1" stroke-linecap="round"/>
<line x1="46" y1="167.33758544921875" x2="314" y2="167.33758544921875" stroke="rgb(222,232,242)" stroke-opacity="1" stroke-width="1" stroke-linecap="round"/>
<line x1="41" y1="167.33758544921875" x2="46" y2="167.33758544921875" stroke="rgb(43,59,82)" stroke-opacity="1" stroke-width="1" stroke-linecap="round"/>
<line x1="46" y1="148.6751708984375" x2="314" y2="148.6751708984375" stroke="rgb(222,232,242)" stroke-opacity="1" stroke-width="1" stroke-linecap="round"/>
<line x1="41" y1="148.6751708984375" x2="46" y2="148.6751708984375" stroke="rgb(43,59,82)" stroke-opacity="1" stroke-width="1" stroke-linecap="round"/>
<line x1="46" y1="130.01275634765625" x2="314" y2="130.01275634765625" stroke="rgb(222,232,242)" stroke-opacity="1" stroke-width="1" stroke-linecap="round"/>
<line x1="41" y1="130.01275634765625" x2="46" y2="130.01275634765625" stroke="rgb(43,59,82)" stroke-opacity="1" stroke-width="1" stroke-linecap="round"/>
<line x1="46" y1="111.350341796875" x2="314" y2="111.350341796875" stroke="rgb(222,232,242)" stroke-opacity="1" stroke-width="1" stroke-linecap="round"/>
<line x1="41" y1="111.350341796875" x2="46" y2="111.350341796875" stroke="rgb(43,59,82)" stroke-opacity="1" stroke-width="1" stroke-linecap="round"/>
<line x1="46" y1="92.68791961669922" x2="314" y2="92.68791961669922" stroke="rgb(222,232,242)" stroke-opacity="1" stroke-width="1" stroke-linecap="round"/>
<line x1="41" y1="92.68791961669922" x2="46" y2="92.68791961669922" stroke="rgb(43,59,82)" stroke-opacity="1" stroke-width="1" stroke-linecap="round"/>
<line x1="46" y1="53" x2="46" y2="186" stroke="rgb(43,59,82)" stroke-opacity="1" stroke-width="1" stroke-linecap="round"/>
<line x1="46" y1="186" x2="314" y2="186" stroke="rgb(43,59,82)" stroke-opacity="1" stroke-width="1" stroke-linecap="round"/>
<line x1="46" y1="148.6751708984375" x2="314" y2="148.6751708984375" stroke="rgb(209,48,56)" stroke-opacity="1" stroke-width="2" stroke-linecap="round"/>
<path d="M57.16666793823242 186 L79.5 185.83279418945312 L101.83332824707031 184.94839477539062 L124.16666412353516 182.7445068359375 L146.5 178.63644409179688 L168.83334350585938 172.1092529296875 L191.1666717529297 162.74484252929688 L213.5 150.22634887695312 L235.8333282470703 134.32785034179688 L258.16668701171875 114.89706420898438 L280.5 91.83721923828125 L302.8333435058594 65.09091186523438" fill="none" stroke="rgb(20,99,189)" stroke-opacity="1" stroke-width="2" stroke-linejoin="round"/>
<rect x="54.16666793823242" y="183" width="6" height="6" fill="rgb(20,99,189)" fill-opacity="1"/>
<rect x="76.5" y="182.83279418945312" width="6" height="6" fill="rgb(20,99,189)" fill-opacity="1"/>
<rect x="98.83332824707031" y="181.94839477539062" width="6" height="6" fill="rgb(20,99,189)" fill-opacity="1"/>
<rect x="121.16666412353516" y="179.7445068359375" width="6" height="6" fill="rgb(20,99,189)" fill-opacity="1"/>
<rect x="143.5" y="175.63644409179688" width="6" height="6" fill="rgb(20,99,189)" fill-opacity="1"/>
<rect x="165.83334350585938" y="169.1092529296875" width="6" height="6" fill="rgb(20,99,189)" fill-opacity="1"/>
<rect x="188.1666717529297" y="159.74484252929688" width="6" height="6" fill="rgb(20,99,189)" fill-opacity="1"/>
<rect x="210.5" y="147.22634887695312" width="6" height="6" fill="rgb(20,99,189)" fill-opacity="1"/>
<rect x="232.8333282470703" y="131.32785034179688" width="6" height="6" fill="rgb(20,99,189)" fill-opacity="1"/>
<rect x="255.16668701171875" y="111.89706420898438" width="6" height="6" fill="rgb(20,99,189)" fill-opacity="1"/>
<rect x="277.5" y="88.83721923828125" width="6" height="6" fill="rgb(20,99,189)" fill-opacity="1"/>
<rect x="299.8333435058594" y="62.090911865234375" width="6" height="6" fill="rgb(20,99,189)" fill-opacity="1"/>
<rect x="232.8333282470703" y="131.32785034179688" width="6" height="6" fill="rgb(209,48,56)" fill-opacity="1"/>
<rect x="255.16668701171875" y="111.89706420898438" width="6" height="6" fill="rgb(209,48,56)" fill-opacity="1"/>
<rect x="277.5" y="88.83721923828125" width="6" height="6" fill="rgb(209,48,56)" fill-opacity="1"/>
<rect x="299.8333435058594" y="62.090911865234375" width="6" height="6" fill="rgb(209,48,56)" fill-opacity="1"/>
<text x="180" y="18" font-family="sans-serif" font-size="13" text-anchor="middle" fill="rgb(43,59,82)" fill-opacity="1">MEWMA / gradual correlated drift</text>
<text x="180" y="34" font-family="sans-serif" font-size="8" text-anchor="middle" fill="rgb(43,59,82)" fill-opacity="1">Phase II / lambda = 0.25 / finite-time covariance</text>
<text x="37" y="189" font-family="sans-serif" font-size="8" text-anchor="end" fill="rgb(43,59,82)" fill-opacity="1">0</text>
<text x="37" y="170.33758544921875" font-family="sans-serif" font-size="8" text-anchor="end" fill="rgb(43,59,82)" fill-opacity="1">5</text>
<text x="37" y="151.6751708984375" font-family="sans-serif" font-size="8" text-anchor="end" fill="rgb(43,59,82)" fill-opacity="1">10</text>
<text x="37" y="133.01275634765625" font-family="sans-serif" font-size="8" text-anchor="end" fill="rgb(43,59,82)" fill-opacity="1">15</text>
<text x="37" y="114.350341796875" font-family="sans-serif" font-size="8" text-anchor="end" fill="rgb(43,59,82)" fill-opacity="1">20</text>
<text x="37" y="95.68791961669922" font-family="sans-serif" font-size="8" text-anchor="end" fill="rgb(43,59,82)" fill-opacity="1">25</text>
<text x="57.16666793823242" y="202" font-family="sans-serif" font-size="8" text-anchor="middle" fill="rgb(43,59,82)" fill-opacity="1">1</text>
<text x="124.16666412353516" y="202" font-family="sans-serif" font-size="8" text-anchor="middle" fill="rgb(43,59,82)" fill-opacity="1">4</text>
<text x="213.5" y="202" font-family="sans-serif" font-size="8" text-anchor="middle" fill="rgb(43,59,82)" fill-opacity="1">8</text>
<text x="302.8333435058594" y="202" font-family="sans-serif" font-size="8" text-anchor="middle" fill="rgb(43,59,82)" fill-opacity="1">12</text>
<text x="321" y="151.6751708984375" font-family="sans-serif" font-size="8" text-anchor="start" fill="rgb(43,59,82)" fill-opacity="1">UCL</text>
<text x="180" y="227" font-family="sans-serif" font-size="7" text-anchor="middle" fill="rgb(43,59,82)" fill-opacity="1">Caller-selected UCL = 10 / ARL calibration external</text>
</svg>
