<svg xmlns="http://www.w3.org/2000/svg" role="img" width="360" height="240" viewBox="0 0 360 240"><title>seasonal_subseries</title><desc>Neper chart rendered from caller-owned geometry</desc>
<rect x="0" y="0" width="360" height="240" fill="rgb(255,255,255)"/>
<rect x="44" y="49" width="68" height="139" fill="rgb(242,247,252)"/>
<rect x="112" y="49" width="1" height="139" fill="rgb(201,209,222)"/>
<rect x="180" y="49" width="68" height="139" fill="rgb(242,247,252)"/>
<rect x="180" y="49" width="1" height="139" fill="rgb(201,209,222)"/>
<rect x="248" y="49" width="1" height="139" fill="rgb(201,209,222)"/>
<line x1="50.8" y1="174.1" x2="105.2" y2="174.1" stroke="rgb(224,87,33)" stroke-width="2" stroke-linecap="round"/>
<line x1="118.8" y1="127.77" x2="173.2" y2="127.77" stroke="rgb(224,87,33)" stroke-width="2" stroke-linecap="round"/>
<line x1="186.8" y1="72.17" x2="241.2" y2="72.17" stroke="rgb(224,87,33)" stroke-width="2" stroke-linecap="round"/>
<line x1="254.8" y1="146.3" x2="309.2" y2="146.3" stroke="rgb(224,87,33)" stroke-width="2" stroke-linecap="round"/>
<path d="M50.8 188 L68.93 178.73 L87.07 169.47 L105.2 160.2" fill="none" stroke="rgb(15,89,184)" stroke-width="2" stroke-linejoin="round"/>
<path d="M118.8 150.93 L136.93 141.67 L155.07 113.87 L173.2 104.6" fill="none" stroke="rgb(15,89,184)" stroke-width="2" stroke-linejoin="round"/>
<path d="M186.8 95.33 L204.93 76.8 L223.07 67.53 L241.2 49" fill="none" stroke="rgb(15,89,184)" stroke-width="2" stroke-linejoin="round"/>
<path d="M254.8 160.2 L272.93 150.93 L291.07 141.67 L309.2 132.4" fill="none" stroke="rgb(15,89,184)" stroke-width="2" stroke-linejoin="round"/>
<text x="180" y="23" font-family="sans-serif" font-size="13" text-anchor="middle" fill="rgb(51,64,84)">Seasonal subseries • quarters</text>
<text x="78" y="205" font-family="sans-serif" font-size="9" text-anchor="middle" fill="rgb(51,64,84)">Q1</text>
<text x="146" y="205" font-family="sans-serif" font-size="9" text-anchor="middle" fill="rgb(51,64,84)">Q2</text>
<text x="214" y="205" font-family="sans-serif" font-size="9" text-anchor="middle" fill="rgb(51,64,84)">Q3</text>
<text x="282" y="205" font-family="sans-serif" font-size="9" text-anchor="middle" fill="rgb(51,64,84)">Q4</text>
<text x="180" y="228" font-family="sans-serif" font-size="9" text-anchor="middle" fill="rgb(51,64,84)">Blue: year sequence     Orange: quarter mean</text>
</svg>
