<svg xmlns="http://www.w3.org/2000/svg" viewBox="0 0 96 96">
  <rect width="96" height="96" rx="22" fill="#3f4a2f"/>
  <g transform="translate(33 58) rotate(-14) scale(-1.05 1.05)" fill="#e8ebf0">
    <path d="M-9 -6 C-10 -14 -4 -19 3 -18 C10 -17 13 -11 12 -4 C11 2 6 5 5 11 C4 19 6 25 0 27 C-6 29 -9 23 -8 16 C-7 9 -4 5 -6 0 C-8 -2 -9 -3 -9 -6 Z"/>
    <ellipse cx="-1" cy="-25" rx="4.4" ry="5.8" transform="rotate(-6 -1 -25)"/><ellipse cx="7" cy="-23.5" rx="3.1" ry="4.2" transform="rotate(8 7 -23.5)"/><ellipse cx="13" cy="-20" rx="2.8" ry="3.8" transform="rotate(22 13 -20)"/><ellipse cx="17" cy="-14.5" rx="2.4" ry="3.4" transform="rotate(38 17 -14.5)"/><ellipse cx="19" cy="-8.5" rx="2.1" ry="3.0" transform="rotate(52 19 -8.5)"/>
  </g>
  <g transform="translate(64 40) rotate(14) scale(1.05 1.05)" fill="#e0b36a">
    <path d="M-9 -6 C-10 -14 -4 -19 3 -18 C10 -17 13 -11 12 -4 C11 2 6 5 5 11 C4 19 6 25 0 27 C-6 29 -9 23 -8 16 C-7 9 -4 5 -6 0 C-8 -2 -9 -3 -9 -6 Z"/>
    <ellipse cx="-1" cy="-25" rx="4.4" ry="5.8" transform="rotate(-6 -1 -25)"/><ellipse cx="7" cy="-23.5" rx="3.1" ry="4.2" transform="rotate(8 7 -23.5)"/><ellipse cx="13" cy="-20" rx="2.8" ry="3.8" transform="rotate(22 13 -20)"/><ellipse cx="17" cy="-14.5" rx="2.4" ry="3.4" transform="rotate(38 17 -14.5)"/><ellipse cx="19" cy="-8.5" rx="2.1" ry="3.0" transform="rotate(52 19 -8.5)"/>
  </g>
</svg>
